# Blender v2.78 (sub 0) OBJ File: 'ramp.blend'
# www.blender.org
mtllib ramp.mtl
o Plane_Plane.002
v -0.377184 -0.297521 0.135361
v -1.857148 0.103235 -0.090938
v -0.593582 -0.689661 0.135361
v -1.593582 -0.640970 0.135361
v -0.861059 0.102479 1.048560
v -2.019521 0.503235 1.996964
v -1.005858 -0.289661 1.209375
v -1.674988 -0.240970 1.952520
v -0.506195 0.502479 2.019199
v -0.576556 0.903235 3.514710
v -0.483576 0.110339 2.234411
v -0.379047 0.159030 3.228933
v 0.452580 0.902479 2.404968
v 1.516881 1.303235 3.457948
v 0.627650 0.510339 2.532163
v 1.436667 0.559030 3.119948
v 1.380808 1.302479 1.950588
v 2.875481 1.703235 1.864240
v 1.592477 0.910339 1.905597
v 2.570625 0.959030 1.697685
v 1.664244 1.702479 0.956741
v 2.600206 2.103235 -0.211795
v 1.772443 1.310339 0.769335
v 2.272443 1.359030 -0.096690
v 1.115328 2.102479 0.081094
v 0.873216 2.503235 -1.396365
v 1.048457 1.710339 -0.124713
v 0.739440 1.759030 -1.075769
v 0.097298 2.502479 -0.096904
v -1.162672 2.903235 -0.905593
v -0.100391 2.110339 -0.184921
v -1.013937 2.159030 -0.591658
v -0.716175 2.902479 0.540535
v -2.160233 3.303236 0.935757
v -0.913864 2.510339 0.628552
v -1.827410 2.559031 1.035289
v -0.786785 3.302479 1.571594
v -1.459341 3.703235 2.909193
v -0.853656 2.910339 1.777401
v -1.162672 2.959030 2.728457
v -0.067806 3.702479 2.313981
v 0.476196 4.103235 3.708816
v 0.040393 3.310339 2.501386
v 0.540393 3.359031 3.367412
v -0.385457 -0.294709 0.130498
v -1.847884 0.106996 -0.091130
v -0.599207 -0.682770 0.130793
v -1.588250 -0.632710 0.133531
v -0.870519 0.105534 1.047471
v -2.011367 0.507294 1.992838
v -1.011234 -0.281502 1.207248
v -1.669991 -0.233073 1.948962
v -0.513334 0.505534 2.025500
v -0.574167 0.907294 3.505889
v -0.488753 0.118498 2.236983
v -0.378347 0.166927 3.222839
v 0.452486 0.905534 2.414489
v 1.511925 1.307294 3.450270
v 0.626096 0.518499 2.537732
v 1.432606 0.566927 3.115350
v 1.387820 1.305534 1.957030
v 2.866459 1.707294 1.862786
v 1.595576 0.918499 1.910477
v 2.564490 0.966927 1.697626
v 1.673723 1.705534 0.955840
v 2.593089 2.107294 -0.206064
v 1.778144 1.318498 0.770298
v 2.268294 1.366927 -0.092171
v 1.121001 2.105534 0.073447
v 0.872713 2.507294 -1.387240
v 1.052987 1.718499 -0.128305
v 0.740022 1.766927 -1.069662
v 0.095411 2.505534 -0.106237
v -1.156228 2.907294 -0.899114
v -0.100030 2.118498 -0.190691
v -1.009009 2.166927 -0.588004
v -0.724373 2.905534 0.535693
v -2.151105 3.307294 0.935304
v -0.917910 2.518498 0.624423
v -1.821397 2.566927 1.034072
v -0.795870 3.305533 1.574446
v -1.453571 3.707294 2.902107
v -0.859432 2.918499 1.777644
v -1.159554 2.966927 2.723174
v -0.074988 3.705291 2.320345
v 0.478875 4.106997 3.699946
v 0.035386 3.318660 2.503774
v 0.541754 3.365351 3.359783
vt 0.0000 0.0000
vt 1.0000 1.0000
vt 0.0000 1.0000
vt 0.0000 0.0000
vt 1.0000 1.0000
vt 0.0000 1.0000
vt 0.0000 0.0000
vt 1.0000 1.0000
vt 0.0000 1.0000
vt 0.0000 0.0000
vt 1.0000 1.0000
vt 0.0000 1.0000
vt 0.0000 0.0000
vt 1.0000 1.0000
vt 0.0000 1.0000
vt 0.0000 0.0000
vt 1.0000 1.0000
vt 0.0000 1.0000
vt 0.0000 0.0000
vt 1.0000 1.0000
vt 0.0000 1.0000
vt 0.0000 0.0000
vt 1.0000 1.0000
vt 0.0000 1.0000
vt 0.0000 0.0000
vt 1.0000 1.0000
vt 0.0000 1.0000
vt 0.0000 0.0000
vt 1.0000 1.0000
vt 0.0000 1.0000
vt 0.0000 0.0000
vt 1.0000 1.0000
vt 0.0000 1.0000
vt 0.0000 0.0000
vt 1.0000 1.0000
vt 0.0000 1.0000
vt 0.0000 0.0000
vt 1.0000 1.0000
vt 0.0000 1.0000
vt 0.0000 0.0000
vt 1.0000 1.0000
vt 0.0000 1.0000
vt 0.0000 0.0000
vt 1.0000 1.0000
vt 0.0000 1.0000
vt 0.0000 0.0000
vt 1.0000 1.0000
vt 0.0000 1.0000
vt 0.0000 0.0000
vt 1.0000 1.0000
vt 0.0000 1.0000
vt 0.0000 0.0000
vt 1.0000 1.0000
vt 0.0000 1.0000
vt 0.0000 0.0000
vt 1.0000 1.0000
vt 0.0000 1.0000
vt 0.0000 0.0000
vt 1.0000 1.0000
vt 0.0000 1.0000
vt 0.0000 0.0000
vt 1.0000 1.0000
vt 0.0000 1.0000
vt 0.0000 0.0000
vt 1.0000 1.0000
vt 0.0000 1.0000
vt 0.0000 0.0000
vt 1.0000 1.0000
vt 0.0000 1.0000
vt 0.0000 0.0000
vt 1.0000 1.0000
vt 0.0000 1.0000
vt 0.0000 0.0000
vt 1.0000 1.0000
vt 0.0000 1.0000
vt 0.0000 0.0000
vt 1.0000 1.0000
vt 0.0000 1.0000
vt 0.0000 0.0000
vt 1.0000 1.0000
vt 0.0000 1.0000
vt 0.0000 0.0000
vt 1.0000 1.0000
vt 0.0000 1.0000
vt 0.0000 0.0000
vt 1.0000 1.0000
vt 0.0000 1.0000
vt 0.0000 0.0000
vt 1.0000 1.0000
vt 0.0000 1.0000
vt 0.0000 0.0000
vt 1.0000 1.0000
vt 0.0000 1.0000
vt 0.0000 0.0000
vt 1.0000 1.0000
vt 0.0000 1.0000
vt 0.0000 0.0000
vt 1.0000 1.0000
vt 0.0000 1.0000
vt 0.0000 0.0000
vt 1.0000 1.0000
vt 0.0000 1.0000
vt 0.0000 0.0000
vt 1.0000 1.0000
vt 0.0000 1.0000
vt 0.0000 0.0000
vt 1.0000 1.0000
vt 0.0000 1.0000
vt 0.0000 0.0000
vt 1.0000 1.0000
vt 0.0000 1.0000
vt 0.0000 0.0000
vt 1.0000 1.0000
vt 0.0000 1.0000
vt 0.0000 0.0000
vt 1.0000 1.0000
vt 0.0000 1.0000
vt 0.0000 0.0000
vt 1.0000 1.0000
vt 0.0000 1.0000
vt 0.0000 0.0000
vt 1.0000 1.0000
vt 0.0000 1.0000
vt 0.0000 0.0000
vt 1.0000 1.0000
vt 0.0000 1.0000
vt 0.0000 0.0000
vt 1.0000 1.0000
vt 0.0000 1.0000
vt 0.0000 0.0000
vt 1.0000 1.0000
vt 0.0000 1.0000
vt 0.0000 0.0000
vt 1.0000 1.0000
vt 0.0000 1.0000
vt 0.0000 0.0000
vt 1.0000 1.0000
vt 0.0000 1.0000
vt 0.0000 0.0000
vt 1.0000 1.0000
vt 0.0000 1.0000
vt 0.0000 0.0000
vt 1.0000 1.0000
vt 0.0000 1.0000
vt 0.0000 0.0000
vt 1.0000 1.0000
vt 0.0000 1.0000
vt 0.0000 0.0000
vt 1.0000 1.0000
vt 0.0000 1.0000
vt 0.0000 0.0000
vt 1.0000 1.0000
vt 0.0000 1.0000
vt 0.0000 0.0000
vt 1.0000 1.0000
vt 0.0000 1.0000
vt 0.0000 0.0000
vt 1.0000 1.0000
vt 0.0000 1.0000
vt 0.0000 0.0000
vt 1.0000 1.0000
vt 0.0000 1.0000
vt 0.0000 0.0000
vt 1.0000 1.0000
vt 0.0000 1.0000
vt 0.0000 0.0000
vt 1.0000 1.0000
vt 0.0000 1.0000
vt 0.0000 0.0000
vt 1.0000 1.0000
vt 0.0000 1.0000
vt 0.0000 0.0000
vt 1.0000 1.0000
vt 0.0000 1.0000
vt 0.0000 0.0000
vt 1.0000 1.0000
vt 0.0000 1.0000
vt 0.0000 0.0000
vt 1.0000 1.0000
vt 0.0000 1.0000
vt 0.0000 0.0000
vt 1.0000 1.0000
vt 1.0000 0.0000
vt 1.0000 0.0000
vt 0.0000 0.0000
vt 1.0000 1.0000
vt 1.0000 1.0000
vt 0.0000 1.0000
vt 0.0000 0.0000
vt 1.0000 1.0000
vt 0.0000 1.0000
vt 0.0000 0.0000
vt 1.0000 1.0000
vt 0.0000 1.0000
vt 0.0000 0.0000
vt 1.0000 1.0000
vt 0.0000 1.0000
vt 0.0000 0.0000
vt 1.0000 1.0000
vt 0.0000 1.0000
vt 0.0000 0.0000
vt 1.0000 1.0000
vt 0.0000 1.0000
vt 0.0000 0.0000
vt 1.0000 1.0000
vt 0.0000 1.0000
vt 0.0000 0.0000
vt 1.0000 1.0000
vt 0.0000 1.0000
vt 0.0000 0.0000
vt 1.0000 1.0000
vt 0.0000 1.0000
vt 1.0000 0.0000
vt 0.0000 1.0000
vt 0.0000 0.0000
vt 1.0000 0.0000
vt 0.0000 1.0000
vt 1.0000 0.0000
vt 0.0000 1.0000
vt 0.0000 0.0000
vt 0.0000 0.0000
vt 0.0000 1.0000
vt 1.0000 0.0000
vt 0.0000 1.0000
vt 0.0000 0.0000
vt 1.0000 0.0000
vt 1.0000 0.0000
vt 1.0000 0.0000
vt 1.0000 0.0000
vt 1.0000 0.0000
vt 1.0000 0.0000
vt 1.0000 0.0000
vt 1.0000 0.0000
vt 1.0000 0.0000
vt 1.0000 0.0000
vt 1.0000 0.0000
vt 1.0000 0.0000
vt 1.0000 0.0000
vt 1.0000 0.0000
vt 1.0000 0.0000
vt 1.0000 0.0000
vt 1.0000 0.0000
vt 1.0000 0.0000
vt 1.0000 0.0000
vt 1.0000 0.0000
vt 1.0000 0.0000
vt 1.0000 0.0000
vt 1.0000 0.0000
vt 1.0000 0.0000
vt 1.0000 0.0000
vt 1.0000 0.0000
vt 1.0000 0.0000
vt 1.0000 0.0000
vt 1.0000 0.0000
vt 1.0000 0.0000
vt 1.0000 0.0000
vt 1.0000 0.0000
vt 1.0000 0.0000
vt 1.0000 0.0000
vt 1.0000 0.0000
vt 1.0000 0.0000
vt 1.0000 0.0000
vt 1.0000 0.0000
vt 1.0000 0.0000
vt 1.0000 0.0000
vt 1.0000 0.0000
vt 1.0000 0.0000
vt 1.0000 0.0000
vt 1.0000 0.0000
vt 1.0000 0.0000
vt 1.0000 0.0000
vt 1.0000 0.0000
vt 1.0000 0.0000
vt 1.0000 0.0000
vt 1.0000 0.0000
vt 1.0000 0.0000
vt 1.0000 0.0000
vt 1.0000 0.0000
vt 1.0000 0.0000
vt 1.0000 0.0000
vt 1.0000 0.0000
vt 1.0000 0.0000
vt 1.0000 0.0000
vt 1.0000 1.0000
vt 1.0000 1.0000
vt 1.0000 0.0000
vt 1.0000 0.0000
vt 1.0000 0.0000
vt 1.0000 0.0000
vt 1.0000 0.0000
vt 1.0000 0.0000
vt 1.0000 0.0000
vt 1.0000 0.0000
vt 1.0000 0.0000
vt 1.0000 1.0000
vt 1.0000 0.0000
vn 0.5237 -0.8210 -0.2273
vn 0.8608 0.4792 -0.1711
vn 0.5617 -0.7965 0.2238
vn 0.4495 0.4793 -0.7538
vn 0.5422 -0.7965 -0.2676
vn -0.2593 0.4792 -0.8385
vn 0.1639 -0.7965 -0.5820
vn -0.7966 0.4793 -0.3683
vn -0.3228 -0.7965 -0.5112
vn -0.8068 0.4792 0.3456
vn -0.5959 -0.7965 -0.1021
vn -0.2830 0.4793 0.8308
vn -0.4747 -0.7965 0.3745
vn 0.4280 0.4792 0.7662
vn -0.0393 -0.7965 0.6033
vn 0.8558 0.4792 0.1946
vn 0.4221 -0.7965 0.4329
vn 0.7174 0.4798 -0.5051
vn 0.6041 -0.7965 -0.0240
vn 0.7354 0.6094 -0.2962
vn 0.8303 -0.4105 -0.3770
vn -0.6966 0.1846 -0.6933
vn -0.4899 -0.7882 0.3725
vn -0.9122 0.2921 0.2873
vn -0.0510 -0.7882 0.6133
vn -0.3968 0.2921 0.8701
vn 0.4216 -0.7882 0.4483
vn 0.3811 0.2921 0.8772
vn 0.6153 -0.7882 -0.0134
vn 0.9069 0.2921 0.3037
vn 0.4017 -0.7882 -0.4662
vn 0.8325 0.2921 -0.4707
vn -0.0776 -0.7882 -0.6105
vn 0.2073 0.2921 -0.9337
vn -0.5056 -0.7882 -0.3508
vn -0.5551 0.2921 -0.7787
vn -0.5990 -0.7882 0.1410
vn -0.9502 0.2921 -0.1085
vn -0.2960 -0.7882 0.5395
vn -0.7163 0.2922 0.6336
vn 0.5658 -0.6722 0.4774
vn 0.2812 0.3516 0.8929
vn -0.4477 -0.7890 -0.4208
vn -0.0688 -0.0136 -0.9975
vn -0.5480 0.7707 -0.3249
vn 0.0591 0.5332 -0.8439
vn -0.5647 0.7947 -0.2222
vn -0.6086 0.7703 0.1900
vn -0.5435 0.7946 0.2706
vn -0.2660 0.7703 0.5795
vn -0.1626 0.7946 0.5850
vn 0.2526 0.7703 0.5854
vn 0.3259 0.7946 0.5122
vn 0.6041 0.7703 0.2040
vn 0.5987 0.7946 0.1005
vn 0.5558 0.7703 -0.3124
vn 0.4754 0.7946 -0.3777
vn 0.1397 0.7703 -0.6221
vn 0.0374 0.7946 -0.6060
vn -0.3688 0.7703 -0.5201
vn -0.4253 0.7946 -0.4333
vn -0.6330 0.7705 -0.0742
vn -0.6068 0.7944 0.0260
vn -0.1006 0.8705 0.4817
vn 0.3740 0.5984 -0.7085
vn 0.4899 0.7883 -0.3722
vn 0.3225 0.2057 -0.9239
vn 0.0740 0.9615 -0.2644
vn 0.0511 0.7882 -0.6132
vn -0.1469 0.9615 -0.2320
vn -0.4215 0.7882 -0.4483
vn -0.2707 0.9615 -0.0460
vn -0.6152 0.7882 0.0133
vn -0.2153 0.9615 0.1704
vn -0.4018 0.7882 0.4660
vn -0.0175 0.9615 0.2741
vn 0.0775 0.7882 0.6104
vn 0.1920 0.9615 0.1964
vn 0.5055 0.7882 0.3508
vn 0.2744 0.9615 -0.0113
vn 0.5990 0.7882 -0.1409
vn 0.1752 0.9615 -0.2114
vn 0.2959 0.7882 -0.5396
vn -0.0400 0.9616 -0.2714
vn 0.8730 0.0264 -0.4870
vn 0.2829 0.9241 0.2567
vn 0.9656 0.1358 -0.2218
vn 0.5924 0.7998 -0.0969
usemtl None
s 1
f 3/1/1 5/2/2 7/3/3
f 7/4/3 9/5/4 11/6/5
f 11/7/5 13/8/6 15/9/7
f 15/10/7 17/11/8 19/12/9
f 19/13/9 21/14/10 23/15/11
f 23/16/11 25/17/12 27/18/13
f 27/19/13 29/20/14 31/21/15
f 31/22/15 33/23/16 35/24/17
f 35/25/17 37/26/18 39/27/19
f 39/28/19 41/29/20 43/30/21
f 2/31/22 8/32/23 6/33/24
f 6/34/24 12/35/25 10/36/26
f 10/37/26 16/38/27 14/39/28
f 14/40/28 20/41/29 18/42/30
f 18/43/30 24/44/31 22/45/32
f 22/46/32 28/47/33 26/48/34
f 26/49/34 32/50/35 30/51/36
f 30/52/36 36/53/37 34/54/38
f 34/55/38 40/56/39 38/57/40
f 38/58/40 44/59/41 42/60/42
f 4/61/43 7/62/3 8/63/23
f 8/64/23 11/65/5 12/66/25
f 12/67/25 15/68/7 16/69/27
f 16/70/27 19/71/9 20/72/29
f 20/73/29 23/74/11 24/75/31
f 24/76/31 27/77/13 28/78/33
f 28/79/33 31/80/15 32/81/35
f 32/82/35 35/83/17 36/84/37
f 36/85/37 39/86/19 40/87/39
f 40/88/39 43/89/21 44/90/41
f 47/91/44 49/92/45 45/93/46
f 51/94/47 53/95/48 49/96/45
f 55/97/49 57/98/50 53/99/48
f 59/100/51 61/101/52 57/102/50
f 63/103/53 65/104/54 61/105/52
f 67/106/55 69/107/56 65/108/54
f 71/109/57 73/110/58 69/111/56
f 75/112/59 77/113/60 73/114/58
f 79/115/61 81/116/62 77/117/60
f 83/118/63 85/119/64 81/120/62
f 46/121/65 52/122/66 48/123/67
f 50/124/68 56/125/69 52/126/66
f 54/127/70 60/128/71 56/129/69
f 58/130/72 64/131/73 60/132/71
f 62/133/74 68/134/75 64/135/73
f 66/136/76 72/137/77 68/138/75
f 70/139/78 76/140/79 72/141/77
f 74/142/80 80/143/81 76/144/79
f 78/145/82 84/146/83 80/147/81
f 82/148/84 88/149/85 84/150/83
f 48/151/67 51/152/47 47/153/44
f 52/154/66 55/155/49 51/156/47
f 56/157/69 59/158/51 55/159/49
f 60/160/71 63/161/53 59/162/51
f 64/163/73 67/164/55 63/165/53
f 68/166/75 71/167/57 67/168/55
f 72/169/77 75/170/59 71/171/57
f 76/172/79 79/173/61 75/174/59
f 80/175/81 83/176/63 79/177/61
f 84/178/83 87/179/86 83/180/63
f 1/181/87 47/182/44 45/93/46
f 2/183/22 48/123/67 4/61/43
f 4/184/43 47/153/44 3/1/1
f 5/185/2 45/186/46 49/96/45
f 2/31/22 50/187/68 46/188/65
f 9/189/4 49/92/45 53/99/48
f 6/34/24 54/190/70 50/191/68
f 13/192/6 53/95/48 57/102/50
f 10/37/26 58/193/72 54/194/70
f 17/195/8 57/98/50 61/105/52
f 14/40/28 62/196/74 58/197/72
f 21/198/10 61/101/52 65/108/54
f 18/43/30 66/199/76 62/200/74
f 25/201/12 65/104/54 69/111/56
f 22/46/32 70/202/78 66/203/76
f 29/204/14 69/107/56 73/114/58
f 26/49/34 74/205/80 70/206/78
f 33/207/16 73/110/58 77/117/60
f 30/52/36 78/208/82 74/209/80
f 37/210/18 77/113/60 81/120/62
f 34/55/38 82/211/84 78/212/82
f 37/213/18 85/214/64 41/215/20
f 42/216/42 82/217/84 38/58/40
f 41/218/20 87/219/86 43/220/21
f 42/221/42 88/149/85 86/222/88
f 43/223/21 88/224/85 44/225/41
f 3/1/1 1/226/87 5/2/2
f 7/4/3 5/227/2 9/5/4
f 11/7/5 9/228/4 13/8/6
f 15/10/7 13/229/6 17/11/8
f 19/13/9 17/230/8 21/14/10
f 23/16/11 21/231/10 25/17/12
f 27/19/13 25/232/12 29/20/14
f 31/22/15 29/233/14 33/23/16
f 35/25/17 33/234/16 37/26/18
f 39/28/19 37/213/18 41/29/20
f 2/31/22 4/184/43 8/32/23
f 6/34/24 8/235/23 12/35/25
f 10/37/26 12/236/25 16/38/27
f 14/40/28 16/237/27 20/41/29
f 18/43/30 20/238/29 24/44/31
f 22/46/32 24/239/31 28/47/33
f 26/49/34 28/240/33 32/50/35
f 30/52/36 32/241/35 36/53/37
f 34/55/38 36/242/37 40/56/39
f 38/58/40 40/243/39 44/59/41
f 4/61/43 3/244/1 7/62/3
f 8/64/23 7/245/3 11/65/5
f 12/67/25 11/246/5 15/68/7
f 16/70/27 15/247/7 19/71/9
f 20/73/29 19/248/9 23/74/11
f 24/76/31 23/249/11 27/77/13
f 28/79/33 27/250/13 31/80/15
f 32/82/35 31/251/15 35/83/17
f 36/85/37 35/252/17 39/86/19
f 40/88/39 39/253/19 43/89/21
f 47/91/44 51/254/47 49/92/45
f 51/94/47 55/255/49 53/95/48
f 55/97/49 59/256/51 57/98/50
f 59/100/51 63/257/53 61/101/52
f 63/103/53 67/258/55 65/104/54
f 67/106/55 71/259/57 69/107/56
f 71/109/57 75/260/59 73/110/58
f 75/112/59 79/261/61 77/113/60
f 79/115/61 83/262/63 81/116/62
f 83/118/63 87/263/86 85/119/64
f 46/121/65 50/264/68 52/122/66
f 50/124/68 54/265/70 56/125/69
f 54/127/70 58/266/72 60/128/71
f 58/130/72 62/267/74 64/131/73
f 62/133/74 66/268/76 68/134/75
f 66/136/76 70/269/78 72/137/77
f 70/139/78 74/270/80 76/140/79
f 74/142/80 78/271/82 80/143/81
f 78/145/82 82/272/84 84/146/83
f 82/148/84 86/273/88 88/149/85
f 48/151/67 52/274/66 51/152/47
f 52/154/66 56/275/69 55/155/49
f 56/157/69 60/276/71 59/158/51
f 60/160/71 64/277/73 63/161/53
f 64/163/73 68/278/75 67/164/55
f 68/166/75 72/279/77 71/167/57
f 72/169/77 76/280/79 75/170/59
f 76/172/79 80/281/81 79/173/61
f 80/175/81 84/282/83 83/176/63
f 84/178/83 88/283/85 87/179/86
f 1/181/87 3/244/1 47/182/44
f 2/183/22 46/284/65 48/123/67
f 4/184/43 48/285/67 47/153/44
f 5/185/2 1/226/87 45/186/46
f 2/31/22 6/286/24 50/187/68
f 9/189/4 5/227/2 49/92/45
f 6/34/24 10/287/26 54/190/70
f 13/192/6 9/228/4 53/95/48
f 10/37/26 14/288/28 58/193/72
f 17/195/8 13/229/6 57/98/50
f 14/40/28 18/289/30 62/196/74
f 21/198/10 17/230/8 61/101/52
f 18/43/30 22/290/32 66/199/76
f 25/201/12 21/231/10 65/104/54
f 22/46/32 26/291/34 70/202/78
f 29/204/14 25/232/12 69/107/56
f 26/49/34 30/292/36 74/205/80
f 33/207/16 29/233/14 73/110/58
f 30/52/36 34/293/38 78/208/82
f 37/210/18 33/234/16 77/113/60
f 34/55/38 38/294/40 82/211/84
f 37/213/18 81/116/62 85/214/64
f 42/216/42 86/295/88 82/217/84
f 41/218/20 85/119/64 87/219/86
f 42/221/42 44/296/41 88/149/85
f 43/223/21 87/179/86 88/224/85
